# xmcd
#
# Track frame offsets: 
#        150
#        7360
#        24500
#        35087
#        45132
#        61891
#        74661
#        94895
#        109797
#        122826
#        142174
#        155858
#        182593
#
# Disc length: 2610 seconds
#
# Revision: 0
# Processed by: cddbd v1.5.1PL0 Copyright (c) Steve Scherf et al.
# Submitted via: ExactAudioCopy v0.95a5
#
DISCID=be0a300d
DTITLE=Poslednaci - Spravny rodeo
DYEAR=1999
DGENRE=Country
TTITLE0=Rodeo
TTITLE1=Sklenka
TTITLE2=Panenka
TTITLE3=Ven se divej
TTITLE4=Par minut
TTITLE5=Tva mama vi
TTITLE6=Jeans bunda
TTITLE7=Pastorale
TTITLE8=Harley
TTITLE9=Cerny oci
TTITLE10=NCVJ
TTITLE11=Montgomery
TTITLE12=Don Yander
EXTD=
EXTT0=
EXTT1=
EXTT2=
EXTT3=
EXTT4=
EXTT5=
EXTT6=
EXTT7=
EXTT8=
EXTT9=
EXTT10=
EXTT11=
EXTT12=
PLAYORDER=
